<svg>
  <symbol id="logo" xmlns="http://www.w3.org/2000/svg" xmlns:xlink="http://www.w3.org/1999/xlink" viewBox="0 0 322.5 129.6"><path fill="#E30613" d="M0 57.4h322.5v2.5H0z"/><defs><path id="a" d="M.1 15.6v16.1c4.2-.4 8-2.4 10.8-5.2 2.8-2.8 4.7-6.6 5.2-10.9H.1z"/></defs><use fill="#E30613" xlink:href="#a" overflow="visible"/><clipPath id="b"><use xlink:href="#a" overflow="visible"/></clipPath><path fill="#E30613" d="M.1 15.6h16v16.1H.1z" clip-path="url(#b)"/><defs><path id="c" d="M37.5 20.9c-2.8 2.8-4.7 6.6-5.2 10.9h16V15.7c-4.2.4-8 2.3-10.8 5.2"/></defs><use fill="#E30613" xlink:href="#c" overflow="visible"/><clipPath id="d"><use xlink:href="#c" overflow="visible"/></clipPath><path fill="#E30613" d="M32.3 15.7h16v16.1h-16z" clip-path="url(#d)"/><path fill="#E30613" d="M16.1 0h16.2v47.4H16.1z"/><path fill="none" d="M16.1 0h16.2v47.4H16.1z"/><g fill="#20286D"><path d="M.6 31.7H.1c9.1-1 15.7-8.6 15.7-17.9 0-.6.3-13.8.3-13.8h16.2c0 17.5-14.2 31.7-31.7 31.7"/><path d="M47.8 15.6h.5c-9.1 1-15.7 8.6-15.7 17.9 0 .6-.3 13.8-.3 13.8H16.1c0-17.5 14.2-31.7 31.7-31.7"/></g><g fill="#20286D"><path d="M81.8 47.6c-13.2 0-21.2-9.4-21.2-22C60.5 13 69.5 3 82.9 3c5 0 8.9 1.2 11.2 2.5l-.1 5.8c-3.3-2.1-6.5-3.2-11.2-3.2-9.9 0-15.9 7.6-15.9 17.1 0 9.9 5.9 17.1 15.7 17.1 3.8 0 7.3-1.1 10.4-2.8l1.7 4.6c-4.3 2.4-8.7 3.5-12.9 3.5zM102 46.9V3.3h22.3l-1.9 5.2h-14.5V22h14.4v5.2h-14.4v14.5h16.5v5.2H102zM164.6 46.9l-21.3-28.1c-2.4-3-3.6-4.8-4.5-6.5h-.1c.1 1.5.2 3.2.2 5.4v29.2H133V3.3h6l20.4 27c2.6 3.5 3.9 5.2 4.8 6.9h.1c-.1-1.7-.1-3.5-.1-5.7V3.3h5.9v43.6h-5.5zM207.2 8.6H195V47h-6V8.6h-12.5V3.3H209l-1.8 5.3zM243.9 43.1c-2.7 2.8-6.9 4.5-13 4.5-5.7 0-9.6-1.5-12.2-4-3.4-3.3-4.2-8.2-4.2-12.5V3.3h5.9V31c0 3 .7 6.3 2.9 8.6 1.7 1.7 4.2 2.8 7.7 2.8 4 0 6.7-1.1 8.5-2.8 1.9-2 2.6-4.9 2.6-8.2v-28h5.9v28.4c0 4.3-1.2 8.4-4.1 11.3zM281.6 46.9c-6.9-11.2-10.7-17.7-12.5-18.1h-4.4v18.1h-5.9V3.3h9.9c10.6 0 14.7 5.4 14.7 12 0 6.1-4 10-8.3 11.6v.1c1.6.8 6.3 8.7 13.3 19.9h-6.8zM268.8 8.6h-4.1V24h4.3c4.8 0 8.3-3.6 8.3-8 0-4-2.2-7.4-8.5-7.4zM308 29.5v17.4h-5.9V29.4L287.5 3.3h6.5l7.5 13.5c1.2 2.2 2.7 4.9 3.7 7h.1c1-2.1 2.4-4.8 3.5-6.9l7.3-13.6h6.2L308 29.5z"/></g><g fill="#20286D"><path d="M65.8 96.7V79.8h-.1L57 93.3l-8.6-13.4h-.1v16.9h-2.8V76.1H49l8.1 12.5 8.1-12.5h3.5v20.6h-2.9zM74.2 96.7V76.1h16.9v3.1H77v5.3h9.8v3.1H77v6.1h14.8v3.1H74.2zM110.6 76.8c1.2.5 2.2 1.2 3 2.1.8.9 1.4 2 1.9 3.3.4 1.3.7 2.8.7 4.3s-.2 2.8-.7 4c-.5 1.2-1.1 2.3-2 3.3-.8.9-1.8 1.6-2.8 2-1.1.5-2.2.7-3.4.7H96V76.1h10.6c1.5 0 2.8.2 4 .7zm-.9 16.3c.7-.4 1.3-.8 1.8-1.5.5-.6.9-1.4 1.2-2.2.3-.9.4-1.8.4-2.8 0-1.1-.2-2.1-.5-3-.3-.9-.7-1.7-1.3-2.3-.5-.6-1.2-1.1-2-1.5-.8-.4-1.6-.5-2.6-.5h-8.1v14.5h8.6c1-.2 1.8-.4 2.5-.7zM120.7 96.7V76.1h2.8v20.6h-2.8zM146.1 81.9c-.9-1.2-1.9-2-3.1-2.5-1.2-.5-2.5-.8-4.1-.8-1.2 0-2.2.2-3.2.6-1 .4-1.8.9-2.5 1.6-.7.7-1.2 1.5-1.6 2.5-.4 1-.6 2-.6 3.1 0 1.2.2 2.2.6 3.2.4 1 .9 1.8 1.6 2.5.7.7 1.5 1.2 2.5 1.6 1 .4 2.1.6 3.3.6 1.5 0 2.8-.3 4-.8 1.1-.5 2.1-1.4 3-2.6l2.4 1.6c-1.2 1.7-2.6 3-4.1 3.8-1.5.8-3.3 1.1-5.4 1.1-1.5 0-2.8-.2-4.1-.7-1.3-.5-2.4-1.2-3.3-2-2.2-2.1-3.4-4.8-3.4-8.2 0-3.3 1.1-6 3.4-8.1.9-.9 2-1.6 3.3-2 1.3-.5 2.6-.7 4.1-.7 2.1 0 3.9.5 5.6 1.4 1.6.9 3 2.2 4.1 4l-2.5.8zM168.5 96.7l-1.9-4.6h-11.3l-1.9 4.6h-3l8.9-20.6h3.5l8.9 20.6h-3.2zM161 79l-4.3 10h8.6L161 79zM174.5 96.7V76.1h2.8v17.5h13v3.1h-15.8zM223.2 96.7l-1.9-4.6H210l-1.9 4.6h-3l8.9-20.6h3.5l8.9 20.6h-3.2zM215.6 79l-4.3 10h8.6l-4.3-10zM244.8 96.7L232 79.8v16.9h-2.8V76.1h3.5L245.5 93V76.1h2.8v20.6h-3.5zM268.5 76.8c1.2.5 2.2 1.2 3 2.1.8.9 1.4 2 1.9 3.3.4 1.3.7 2.8.7 4.3s-.2 2.8-.7 4c-.5 1.2-1.1 2.3-2 3.3-.8.9-1.8 1.6-2.8 2-1.1.5-2.2.7-3.4.7h-11.1V76.1h10.6c1.3 0 2.6.2 3.8.7zm-.9 16.3c.7-.4 1.3-.8 1.8-1.5.5-.6.9-1.4 1.2-2.2.3-.9.4-1.8.4-2.8 0-1.1-.2-2.1-.5-3-.3-.9-.7-1.7-1.3-2.3-.5-.6-1.2-1.1-2-1.5-.8-.4-1.6-.5-2.6-.5h-8.1v14.5h8.6c1-.2 1.8-.4 2.5-.7zM38 109.1c1.2.5 2.2 1.2 3 2.1.8.9 1.4 2 1.9 3.3.4 1.3.7 2.8.7 4.3s-.2 2.8-.7 4c-.5 1.2-1.1 2.3-2 3.3-.8.9-1.8 1.6-2.8 2-1.1.5-2.2.7-3.4.7H23.4v-20.6H34c1.5.2 2.8.4 4 .9zm-.9 16.3c.7-.4 1.3-.8 1.8-1.5.5-.6.9-1.4 1.2-2.2.3-.9.4-1.8.4-2.8 0-1.1-.2-2.1-.5-3-.3-.9-.7-1.7-1.3-2.3-.5-.6-1.2-1.1-2-1.5-.8-.4-1.6-.5-2.6-.5H26v14.5h8.6c1-.2 1.8-.3 2.5-.7zM48.1 129v-20.6H65v3.1H50.9v5.3h9.8v3.1h-9.8v6.1h14.8v3.1H48.1zM85.5 129l-12.8-16.9V129h-2.8v-20.6h3.5l12.8 16.9v-16.9H89V129h-3.5zM102.7 111.5V129h-2.8v-17.6h-8v-3.1h18.8v3.1h-8zM126.9 129l-1.9-4.6h-11.3l-1.9 4.6h-3l8.9-20.6h3.5L130 129h-3.1zm-7.6-17.7l-4.3 10h8.6l-4.3-10zM132.9 129v-20.6h2.8v17.5h13v3.1h-15.8zM182.9 114.2c-.9-1.2-1.9-2-3.1-2.5-1.2-.5-2.5-.8-4.1-.8-1.2 0-2.2.2-3.2.6-1 .4-1.8.9-2.5 1.6-.7.7-1.2 1.5-1.6 2.5-.4 1-.6 2-.6 3.1 0 1.2.2 2.2.6 3.2.4 1 .9 1.8 1.6 2.5.7.7 1.5 1.2 2.5 1.6 1 .4 2.1.6 3.3.6 1.5 0 2.8-.3 4-.8 1.1-.5 2.1-1.4 3-2.6l2.4 1.6c-1.2 1.7-2.6 3-4.1 3.8-1.5.8-3.3 1.1-5.4 1.1-1.5 0-2.8-.2-4.1-.7-1.3-.5-2.4-1.2-3.3-2-2.2-2.1-3.4-4.8-3.4-8.2 0-3.3 1.1-6 3.4-8.1.9-.9 2-1.6 3.3-2 1.3-.5 2.6-.7 4.1-.7 2.1 0 3.9.5 5.6 1.4 1.6.9 3 2.2 4.1 4l-2.5.8zM190.1 129v-20.6H207v3.1h-14.1v5.3h9.8v3.1h-9.8v6.1h14.8v3.1h-17.6zM227.5 129l-12.8-16.9V129h-2.8v-20.6h3.5l12.8 16.9v-16.9h2.8V129h-3.5zM244.6 111.5V129h-2.8v-17.6h-8v-3.1h18.8v3.1h-8zM255.6 129v-20.6h16.9v3.1h-14.1v5.3h9.8v3.1h-9.8v6.1h14.8v3.1h-17.6zM293.1 129l-4.5-7.9h-8.5v7.9h-2.8v-20.6h13.2c1.8 0 3.2.6 4.2 1.7 1 1.2 1.5 2.7 1.5 4.8 0 .9-.1 1.7-.3 2.4-.2.7-.5 1.3-.9 1.8s-.9.9-1.4 1.2c-.5.3-1.1.5-1.7.7l4.5 8h-3.3zm-.6-11.8c.5-.5.8-1.3.8-2.4 0-2.3-1.2-3.4-3.5-3.4H280v6.6h10c1.2.1 2-.2 2.5-.8z"/></g></symbol>

  <symbol id="logo2" xmlns="http://www.w3.org/2000/svg" xmlns:xlink="http://www.w3.org/1999/xlink" viewBox="0 0 322.3 47.6"><defs><path id="a" d="M0 15.6v16.1c4.2-.4 8-2.4 10.8-5.2 2.8-2.8 4.7-6.6 5.2-10.9H0z"/></defs><use fill="#E30613" xlink:href="#a" overflow="visible"/><clipPath id="b"><use xlink:href="#a" overflow="visible"/></clipPath><path fill="#E30613" d="M0 15.6h16v16.1H0z" clip-path="url(#b)"/><defs><path id="c" d="M37.4 20.9c-2.8 2.8-4.7 6.6-5.2 10.9h16V15.7c-4.2.4-7.9 2.3-10.8 5.2"/></defs><use fill="#E30613" xlink:href="#c" overflow="visible"/><clipPath id="d"><use xlink:href="#c" overflow="visible"/></clipPath><path fill="#E30613" d="M32.2 15.7h16v16.1h-16z" clip-path="url(#d)"/><path fill="#E30613" d="M16 0h16.2v47.4H16z"/><path fill="none" d="M16 0h16.2v47.4H16z"/><g fill="#20286D"><path d="M.5 31.7H0c9.1-1 15.7-8.6 15.7-17.9 0-.7.3-13.8.3-13.8h16.2C32.2 17.5 18 31.7.5 31.7"/><path d="M47.7 15.6h.5c-9.1 1-15.7 8.6-15.7 17.9 0 .6-.3 13.8-.3 13.8H16c0-17.5 14.2-31.7 31.7-31.7"/></g><g fill="#20286D"><path d="M81.7 47.6c-13.2 0-21.2-9.4-21.2-22S69.4 3 82.8 3c5 0 8.9 1.2 11.2 2.5l-.1 5.8c-3.3-2.1-6.5-3.2-11.2-3.2-9.9 0-15.9 7.6-15.9 17.1 0 9.9 5.9 17.1 15.7 17.1 3.8 0 7.3-1.1 10.4-2.8l1.7 4.6c-4.3 2.4-8.7 3.5-12.9 3.5zM101.9 46.9V3.3h22.3l-1.9 5.2h-14.5V22h14.4v5.2h-14.4v14.5h16.5v5.2h-22.4zM164.5 46.9l-21.3-28.1c-2.4-3-3.6-4.8-4.5-6.5h-.1c.1 1.5.2 3.2.2 5.4v29.2h-5.9V3.3h6l20.4 27c2.6 3.5 3.9 5.2 4.8 6.9h.1c-.1-1.7-.1-3.5-.1-5.7V3.3h5.9v43.6h-5.5zM207.1 8.6H195V47h-6V8.6h-12.5V3.3h32.4l-1.8 5.3zM243.8 43.1c-2.7 2.8-6.9 4.5-13 4.5-5.7 0-9.6-1.5-12.2-4-3.4-3.3-4.2-8.2-4.2-12.5V3.3h5.9V31c0 3 .7 6.3 2.9 8.6 1.7 1.7 4.2 2.8 7.7 2.8 4 0 6.7-1.1 8.5-2.8 1.9-2 2.6-4.9 2.6-8.2v-28h5.9v28.4c0 4.3-1.2 8.4-4.1 11.3zM281.5 46.9c-6.9-11.2-10.7-17.7-12.5-18.1h-4.4v18.1h-5.9V3.3h9.9c10.6 0 14.7 5.4 14.7 12 0 6.1-4 10-8.3 11.6v.1c1.6.8 6.3 8.7 13.3 19.9h-6.8zM268.7 8.6h-4.1V24h4.3c4.8 0 8.3-3.6 8.3-8 0-4-2.2-7.4-8.5-7.4zM307.9 29.5v17.4H302V29.4L287.4 3.3h6.5l7.5 13.5c1.2 2.2 2.7 4.9 3.7 7h.1c1-2.1 2.4-4.8 3.5-6.9L316 3.3h6.2l-14.3 26.2z"/></g></symbol>

  <symbol id="location" xmlns="http://www.w3.org/2000/svg" viewBox="0 0 20 26.7"><path d="M10 7.8c1.4 0 2.5 1.1 2.5 2.5s-1.1 2.5-2.5 2.5-2.5-1.1-2.5-2.5C7.5 9 8.6 7.8 10 7.8z"/><path d="M10 1c5 0 9 4 9 9 0 3.9-5.9 11.6-9 15.2C6.9 21.6 1 13.9 1 10c0-5 4-9 9-9m0-1C4.5 0 0 4.5 0 10s10 16.7 10 16.7S20 15.5 20 10 15.5 0 10 0z"/></symbol>  

  <symbol id="fb" xmlns="http://www.w3.org/2000/svg" viewBox="0 0 512 512"><path d="M142.5 271.6h52.6v216.6c0 4.3 3.5 7.7 7.7 7.7H292c4.3 0 7.7-3.5 7.7-7.7V272.7h60.5c3.9 0 7.2-3 7.7-6.9l9.2-79.7c.3-2.2-.4-4.4-1.9-6-1.5-1.6-3.6-2.6-5.8-2.6h-69.7v-50c0-15.1 8.1-22.7 24.1-22.7h45.6c4.3 0 7.7-3.5 7.7-7.7V23.8c0-4.3-3.5-7.7-7.7-7.7h-62.8c-.4 0-1.4-.1-2.9-.1-10.9 0-48.8 2.1-78.7 29.7-33.1 30.5-28.5 67-27.4 73.3v58.5h-55.2c-4.3 0-7.7 3.5-7.7 7.7v78.7c.1 4.3 3.5 7.7 7.8 7.7z"/></symbol>

  <symbol id="tw" xmlns="http://www.w3.org/2000/svg" viewBox="0 0 512 512"><path d="M485.1 104.9c-7.5 3.3-15.3 6.2-23.2 8.5 9.4-10.6 16.5-23.1 20.9-36.7 1-3.1 0-6.4-2.6-8.4-2.5-2-6-2.2-8.8-.6-16.8 10-35 17.1-54 21.3-19.2-18.7-45.2-29.4-72.1-29.4-56.8 0-103 46.2-103 103 0 4.5.3 8.9.8 13.3C172.6 169.7 107 135.1 62 79.8c-1.6-2-4.1-3-6.6-2.8-2.5.2-4.8 1.6-6.1 3.8-9.1 15.7-14 33.6-14 51.8 0 24.8 8.9 48.4 24.5 66.8-4.8-1.6-9.4-3.7-13.8-6.2-2.4-1.3-5.3-1.3-7.6.1-2.4 1.3-3.8 3.8-3.9 6.5v1.4c0 37.1 19.9 70.4 50.4 88.6-2.6-.3-5.2-.6-7.8-1.1-2.7-.5-5.4.4-7.2 2.5-1.8 2-2.4 4.9-1.6 7.5 11.3 35.2 40.3 61.2 75.5 69.1-29.1 18.3-62.5 27.8-97.4 27.8-7.3 0-14.6-.4-21.8-1.3-3.6-.4-7 1.7-8.2 5.1-1.2 3.4.1 7.2 3.1 9.1 44.9 28.8 96.9 44 150.3 44 104.9 0 170.5-49.5 207.1-91 45.6-51.7 71.8-120.2 71.8-187.9 0-2.8 0-5.7-.1-8.5 18-13.6 33.5-30 46.1-48.8 1.9-2.9 1.7-6.7-.5-9.3-2.2-2.7-5.9-3.5-9.1-2.1z"/></symbol>

  <symbol id="gp" xmlns="http://www.w3.org/2000/svg" viewBox="0 0 512 512"><path d="M484.6 224.6h-30.2v-30.2c0-6.3-5.1-11.4-11.4-11.4h-40.7c-6.3 0-11.4 5.1-11.4 11.4v30.2h-30.2c-6.3 0-11.4 5.1-11.4 11.4v40.7c0 6.3 5.1 11.4 11.4 11.4h30.2v30.2c0 6.3 5.1 11.4 11.4 11.4H443c6.3 0 11.4-5.1 11.4-11.4v-30.2h30.2c6.3 0 11.4-5.1 11.4-11.4V236c0-6.3-5.1-11.4-11.4-11.4zM171.3 174.7c13.8 0 27.2 3.7 38.5 10.8l13 8.9c4.5 3.1 10.6 2.5 14.5-1.3l37.8-37.5c2.4-2.4 3.6-5.8 3.3-9.1-.3-3.4-2.1-6.5-4.9-8.4l-22-15.1c-.4-.3-.9-.6-1.4-.8l-21.3-10.5c-.3-.1-.6-.3-.9-.4-18.3-7.2-37.7-10.9-57.5-10.9-40.8 0-79.2 15.6-108.3 44.1-29.4 28.8-45.8 68-46.1 110.4-.3 42.4 15.6 81.9 44.7 111.1 28.9 29 69.9 45.7 112.5 45.7 42.1 0 81.7-16.4 108.5-44.9 21.2-22.6 34.3-52.8 37.7-87.3 0-.3.1-.7.1-1l.4-31c0-.6 0-1.3-.1-1.9l-1.7-10.6c-.9-5.6-5.7-9.7-11.3-9.7H174.7c-6.3 0-11.4 5.1-11.4 11.4v45.7c0 6.3 5.1 11.4 11.4 11.4H242c-3.1 6.8-7.9 13.9-14.1 20.5-13.4 14.5-33.4 22.8-54.9 22.8-21.9 0-42.9-8.6-57.6-23.6-30.6-31.2-30.2-85.5.7-116.2 14.7-14.3 34.8-22.6 55.2-22.6z"/></symbol>

  <symbol id="chat" xmlns="http://www.w3.org/2000/svg" viewBox="0 0 511.63 511.63"><path d="M477.36 127.48C454.52 99.4 423.5 77.23 384.3 60.96c-39.22-16.28-82.04-24.4-128.5-24.4-46.43 0-89.26 8.12-128.47 24.4-39.2 16.27-70.23 38.44-93.07 66.52C11.42 155.56 0 186.15 0 219.28c0 28.54 8.6 55.3 25.84 80.22 17.22 24.93 40.77 45.87 70.66 62.8-2.1 7.62-4.57 14.86-7.42 21.7-2.86 6.86-5.43 12.48-7.7 16.86-2.3 4.37-5.4 9.23-9.3 14.56-3.9 5.33-6.84 9.1-8.84 11.28-2 2.2-5.28 5.8-9.85 10.85-4.58 5.04-7.53 8.33-8.86 9.85-.2.1-.95.95-2.3 2.57l-1.98 2.42-1.72 2.56c-.95 1.42-1.38 2.33-1.28 2.7.1.4-.1 1.34-.57 2.86-.5 1.53-.44 2.67.13 3.43v.3c.76 3.22 2.28 5.84 4.56 7.84 2.28 1.98 4.85 2.98 7.7 2.98h1.43c12.38-1.53 23.23-3.62 32.55-6.28 49.87-12.75 93.65-35.78 131.34-69.1 14.27 1.53 28.07 2.3 41.4 2.3 46.43 0 89.26-8.15 128.47-24.43 39.2-16.27 70.22-38.44 93.06-66.5 22.85-28.1 34.27-58.68 34.27-91.8s-11.42-63.72-34.27-91.8zm-32.12 164.6c-19.9 22.45-46.73 40.3-80.5 53.52-33.8 13.23-70.1 19.85-108.93 19.85-11.6 0-23.97-.76-37.1-2.3l-16.28-1.7-12.28 10.85c-23.4 20.56-49.58 36.83-78.5 48.82 8.74-15.4 15.4-31.78 19.98-49.1l7.7-27.4-24.83-14.28c-24.76-14.1-43.93-30.8-57.54-50.1-13.6-19.33-20.42-39.65-20.42-60.97 0-26.07 9.95-50.34 29.84-72.8 19.9-22.46 46.73-40.3 80.5-53.53C180.7 79.7 217 73.1 255.82 73.1c38.84 0 75.14 6.6 108.93 19.83 33.78 13.23 60.62 31.08 80.5 53.54 19.9 22.46 29.85 46.72 29.85 72.8s-9.95 50.34-29.84 72.8z"/></symbol>

  <symbol id="menu" xmlns="http://www.w3.org/2000/svg" viewBox="0 0 75 75"><path d="M57.5 21h-38c-1.1 0-2 .9-2 2s.9 2 2 2h38c1.1 0 2-.9 2-2s-.9-2-2-2zM57.5 36h-38c-1.1 0-2 .9-2 2s.9 2 2 2h38c1.1 0 2-.9 2-2s-.9-2-2-2zM57.5 51h-38c-1.1 0-2 .9-2 2s.9 2 2 2h38c1.1 0 2-.9 2-2s-.9-2-2-2z"/><path d="M75 14c0-5.52-4.48-10-10-10H10C4.48 4 0 8.48 0 14v47c0 5.52 4.48 10 10 10h55c5.52 0 10-4.48 10-10V14zm-4 47c0 3.3-2.7 6-6 6H10c-3.3 0-6-2.7-6-6V14c0-3.3 2.7-6 6-6h55c3.3 0 6 2.7 6 6v47z"/></symbol>

  <symbol id="bank" viewBox="0 0 30 28"><path d="M15 0l15 6v2h-2c0 0.547-0.484 1-1.078 1h-23.844c-0.594 0-1.078-0.453-1.078-1h-2v-2zM4 10h4v12h2v-12h4v12h2v-12h4v12h2v-12h4v12h0.922c0.594 0 1.078 0.453 1.078 1v1h-26v-1c0-0.547 0.484-1 1.078-1h0.922v-12zM28.922 25c0.594 0 1.078 0.453 1.078 1v2h-30v-2c0-0.547 0.484-1 1.078-1h27.844z"></path></symbol>

  <symbol id="comment" viewBox="0 0 28 28"><path d="M14 6c-6.5 0-12 3.656-12 8 0 2.328 1.563 4.547 4.266 6.078l1.359 0.781-0.422 1.5c-0.297 1.109-0.688 1.969-1.094 2.688 1.578-0.656 3.016-1.547 4.297-2.672l0.672-0.594 0.891 0.094c0.672 0.078 1.359 0.125 2.031 0.125 6.5 0 12-3.656 12-8s-5.5-8-12-8zM28 14c0 5.531-6.266 10-14 10-0.766 0-1.531-0.047-2.266-0.125-2.047 1.813-4.484 3.094-7.187 3.781-0.562 0.156-1.172 0.266-1.781 0.344h-0.078c-0.313 0-0.594-0.25-0.672-0.594v-0.016c-0.078-0.391 0.187-0.625 0.422-0.906 0.984-1.109 2.109-2.047 2.844-4.656-3.219-1.828-5.281-4.656-5.281-7.828 0-5.531 6.266-10 14-10v0c7.734 0 14 4.469 14 10z"></path></symbol>

  <symbol id="arrow-left" viewBox="0 0 29 28"><path d="M28 12.5v3c0 0.281-0.219 0.5-0.5 0.5h-19.5v3.5c0 0.203-0.109 0.375-0.297 0.453s-0.391 0.047-0.547-0.078l-6-5.469c-0.094-0.094-0.156-0.219-0.156-0.359v0c0-0.141 0.063-0.281 0.156-0.375l6-5.531c0.156-0.141 0.359-0.172 0.547-0.094 0.172 0.078 0.297 0.25 0.297 0.453v3.5h19.5c0.281 0 0.5 0.219 0.5 0.5z"></path></symbol>

  <symbol id="arrow-right" viewBox="0 0 27 28"><path d="M27 13.953c0 0.141-0.063 0.281-0.156 0.375l-6 5.531c-0.156 0.141-0.359 0.172-0.547 0.094-0.172-0.078-0.297-0.25-0.297-0.453v-3.5h-19.5c-0.281 0-0.5-0.219-0.5-0.5v-3c0-0.281 0.219-0.5 0.5-0.5h19.5v-3.5c0-0.203 0.109-0.375 0.297-0.453s0.391-0.047 0.547 0.078l6 5.469c0.094 0.094 0.156 0.219 0.156 0.359v0z"></path></symbol>


</svg>